<?xml version="1.0" encoding="UTF-8" standalone="no"?>
<!-- Created with Inkscape (http://www.inkscape.org/) -->

<svg
   xmlns:dc="http://purl.org/dc/elements/1.1/"
   xmlns:cc="http://creativecommons.org/ns#"
   xmlns:rdf="http://www.w3.org/1999/02/22-rdf-syntax-ns#"
   xmlns:svg="http://www.w3.org/2000/svg"
   xmlns="http://www.w3.org/2000/svg"
   xmlns:sodipodi="http://sodipodi.sourceforge.net/DTD/sodipodi-0.dtd"
   xmlns:inkscape="http://www.inkscape.org/namespaces/inkscape"
   width="32"
   height="32"
   viewBox="0 0 8.4666665 8.4666671"
   version="1.1"
   id="svg877"
   inkscape:version="0.92.4 (unknown)"
   sodipodi:docname="guest-32.svg">
  <defs
     id="defs871" />
  <sodipodi:namedview
     id="base"
     pagecolor="#ffffff"
     bordercolor="#666666"
     borderopacity="1.0"
     inkscape:pageopacity="0.0"
     inkscape:pageshadow="2"
     inkscape:zoom="3.1875"
     inkscape:cx="115.43119"
     inkscape:cy="90.363156"
     inkscape:document-units="px"
     inkscape:current-layer="layer1"
     showgrid="false"
     units="px"
     inkscape:window-width="1920"
     inkscape:window-height="1025"
     inkscape:window-x="1920"
     inkscape:window-y="0"
     inkscape:window-maximized="1"
     inkscape:snap-nodes="false" />
  <metadata
     id="metadata874">
    <rdf:RDF>
      <cc:Work
         rdf:about="">
        <dc:format>image/svg+xml</dc:format>
        <dc:type
           rdf:resource="http://purl.org/dc/dcmitype/StillImage" />
        <dc:title></dc:title>
      </cc:Work>
    </rdf:RDF>
  </metadata>
  <g
     inkscape:label="Capa 1"
     inkscape:groupmode="layer"
     id="layer1"
     transform="translate(0,-288.53332)">
    <text
       id="text868"
       y="289.68964"
       x="0.54425055"
       style="font-style:normal;font-variant:normal;font-weight:bold;font-stretch:normal;font-size:0.86101675px;line-height:1.25;font-family:sans-serif;-inkscape-font-specification:'sans-serif Bold';letter-spacing:0px;word-spacing:0px;fill:#ffffff;fill-opacity:1;stroke:none;stroke-width:0.02152542"
       xml:space="preserve"><tspan
         style="font-style:normal;font-variant:normal;font-weight:bold;font-stretch:normal;font-family:sans-serif;-inkscape-font-specification:'sans-serif Bold';fill:#ffffff;stroke-width:0.02152542"
         y="290.47305"
         x="0.54425055"
         id="tspan866"
         sodipodi:role="line" /></text>
    <path
       inkscape:connector-curvature="0"
       id="path891"
       d="m -98.646791,335.56528 c -0.3291,-0.41965 -0.31975,-0.42901 0.0999,-0.0999 0.44073,0.34564 0.58089,0.56292 0.36312,0.56292 -0.0549,0 -0.2633,-0.20836 -0.46302,-0.46302 z m 5.85459,0.36312 c 0,-0.0549 0.20836,-0.2633 0.46302,-0.46302 0.41964,-0.32911 0.429,-0.31975 0.0999,0.0999 -0.34564,0.44073 -0.56291,0.58088 -0.56291,0.36312 z m -77.837119,-41.62043 c 0.191,-0.0764 0.4192,-0.067 0.50712,0.0209 0.0879,0.0879 -0.0684,0.15045 -0.34726,0.13896 -0.30823,-0.0127 -0.37092,-0.0754 -0.15986,-0.15985 z m 6.35001,0 c 0.19099,-0.0764 0.41919,-0.067 0.50711,0.0209 0.0879,0.0879 -0.0684,0.15045 -0.34726,0.13896 -0.30823,-0.0127 -0.37092,-0.0754 -0.15985,-0.15985 z m 44.18541,0 c 0.191,-0.0764 0.4192,-0.067 0.50712,0.0209 0.0879,0.0879 -0.0683,0.15045 -0.34726,0.13896 -0.30823,-0.0127 -0.37092,-0.0754 -0.15986,-0.15985 z m 6.33347,0.006 c 0.1819,-0.0734 0.47955,-0.0734 0.66145,0 0.18191,0.0734 0.0331,0.13345 -0.33072,0.13345 -0.36381,0 -0.51263,-0.0601 -0.33073,-0.13345 z m -58.72097,-0.2701 c 0.191,-0.0764 0.4192,-0.067 0.50712,0.0209 0.0879,0.0879 -0.0684,0.15045 -0.34727,0.13896 -0.30822,-0.0127 -0.37091,-0.0754 -0.15985,-0.15985 z m 77.307949,-4.15248 c 0,-0.0549 0.20836,-0.2633 0.46302,-0.46302 0.41964,-0.32911 0.429,-0.31975 0.0999,0.0999 -0.34564,0.44073 -0.56291,0.58089 -0.56291,0.36313 z m -57.943759,-0.26458 c 0,-0.055 0.20836,-0.2633 0.46303,-0.46303 0.41964,-0.3291 0.429,-0.31974 0.0999,0.0999 -0.34564,0.44073 -0.56292,0.58089 -0.56292,0.36313 z m 21.66209,-0.36313 c -0.32911,-0.41964 -0.31975,-0.429 0.0999,-0.0999 0.44073,0.34565 0.58089,0.56292 0.36313,0.56292 -0.0549,0 -0.2633,-0.20836 -0.46302,-0.46302 z m -19.94229,-1.12448 c 0.26339,-0.29104 0.53842,-0.52916 0.61118,-0.52916 0.0728,0 -0.0832,0.23812 -0.3466,0.52916 -0.26339,0.29104 -0.53842,0.52917 -0.61118,0.52917 -0.0728,0 0.0832,-0.23813 0.3466,-0.52917 z m 57.811459,0.44638 c 0,-0.0455 0.38695,-0.43249 0.85989,-0.8599 l 0.8599,-0.7771 -0.77711,0.85989 c -0.72437,0.80155 -0.94268,0.98151 -0.94268,0.77711 z m -39.456669,-0.64482 c -0.32911,-0.41964 -0.31975,-0.429 0.0999,-0.0999 0.44073,0.34564 0.58089,0.56292 0.36313,0.56292 -0.0549,0 -0.2633,-0.20836 -0.46302,-0.46303 z m -53.44584,-0.52916 c -0.3291,-0.41965 -0.31974,-0.42901 0.0999,-0.0999 0.25466,0.19972 0.46302,0.40808 0.46302,0.46302 0,0.21776 -0.21727,0.0776 -0.56292,-0.36312 z m 52.12292,-0.52917 c -0.32911,-0.41964 -0.31975,-0.429 0.0999,-0.0999 0.44073,0.34565 0.58089,0.56292 0.36312,0.56292 -0.0549,0 -0.2633,-0.20836 -0.46302,-0.46302 z m 38.662919,-0.7276 c 0.34178,-0.36381 0.68094,-0.66146 0.7537,-0.66146 0.0728,0 -0.14734,0.29765 -0.48912,0.66146 -0.34177,0.3638 -0.68094,0.66146 -0.7537,0.66146 -0.0728,0 0.14734,-0.29766 0.48912,-0.66146 z m -93.927089,-1.5875 c -1.08412,-1.09141 -1.9116,-1.98438 -1.83884,-1.98438 0.0728,0 1.0193,0.89297 2.10343,1.98438 1.08412,1.0914 1.9116,1.98437 1.83884,1.98437 -0.0728,0 -1.0193,-0.89297 -2.10343,-1.98437 z m 46.8974,-0.58639 c 0.40018,-0.0606 1.05503,-0.0606 1.45521,0 0.40018,0.0606 0.0728,0.11023 -0.7276,0.11023 -0.80037,0 -1.12779,-0.0496 -0.72761,-0.11023 z m 49.940109,-0.73653 c 0.34177,-0.3638 0.68094,-0.66146 0.7537,-0.66146 0.0728,0 -0.14734,0.29766 -0.48912,0.66146 -0.34178,0.3638 -0.68094,0.66146 -0.7537,0.66146 -0.0728,0 0.14734,-0.29766 0.48912,-0.66146 z m -99.781669,-1.91823 c -0.32911,-0.41964 -0.31975,-0.429 0.0999,-0.0999 0.25466,0.19973 0.46302,0.40808 0.46302,0.46303 0,0.21776 -0.21727,0.0776 -0.56291,-0.36313 z m 101.104579,0.36313 c 0,-0.055 0.20836,-0.2633 0.46302,-0.46303 0.41965,-0.3291 0.42901,-0.31974 0.0999,0.0999 -0.34564,0.44073 -0.56292,0.58089 -0.56292,0.36313 z m -75.864229,-4.3168 c 0.25743,-0.0671 0.61461,-0.0627 0.79375,0.01 0.17913,0.0725 -0.0315,0.12736 -0.46806,0.12197 -0.43656,-0.005 -0.58313,-0.0647 -0.32569,-0.13177 z m 3.43958,0 c 0.25743,-0.0671 0.61462,-0.0627 0.79375,0.01 0.17913,0.0725 -0.0315,0.12736 -0.46806,0.12197 -0.43656,-0.005 -0.58312,-0.0647 -0.32569,-0.13177 z m 43.12708,0 c 0.25743,-0.0671 0.61462,-0.0627 0.79375,0.01 0.17913,0.0725 -0.0315,0.12736 -0.46805,0.12197 -0.43657,-0.005 -0.58313,-0.0647 -0.3257,-0.13177 z m 3.43959,0 c 0.25743,-0.0671 0.61462,-0.0627 0.79375,0.01 0.17913,0.0725 -0.0315,0.12736 -0.46806,0.12197 -0.43656,-0.005 -0.58313,-0.0647 -0.32569,-0.13177 z m -62.75655,-9.49598 c 0.0127,-0.30823 0.0754,-0.37092 0.15985,-0.15985 0.0764,0.19099 0.067,0.41919 -0.0209,0.50711 -0.0879,0.0879 -0.15045,-0.0684 -0.13897,-0.34726 z m 29.36875,0 c 0.0127,-0.30823 0.0754,-0.37092 0.15985,-0.15985 0.0764,0.19099 0.067,0.41919 -0.0209,0.50711 -0.0879,0.0879 -0.15045,-0.0684 -0.13897,-0.34726 z m 17.19792,0 c 0.0127,-0.30823 0.0754,-0.37092 0.15985,-0.15985 0.0764,0.19099 0.067,0.41919 -0.0209,0.50711 -0.0879,0.0879 -0.15046,-0.0684 -0.13897,-0.34726 z m 29.36875,0 c 0.0127,-0.30823 0.0754,-0.37092 0.15985,-0.15985 0.0764,0.19099 0.067,0.41919 -0.0209,0.50711 -0.0879,0.0879 -0.15046,-0.0684 -0.13897,-0.34726 z m -75.93542,-1.85208 c 0.0127,-0.30823 0.0754,-0.37092 0.15985,-0.15986 0.0764,0.191 0.067,0.4192 -0.0209,0.50712 -0.0879,0.0879 -0.15045,-0.0684 -0.13897,-0.34726 z m 29.36875,0 c 0.0127,-0.30823 0.0754,-0.37092 0.15985,-0.15986 0.0764,0.191 0.067,0.4192 -0.0209,0.50712 -0.0879,0.0879 -0.15045,-0.0684 -0.13897,-0.34726 z m 17.19792,0 c 0.0127,-0.30823 0.0754,-0.37092 0.15985,-0.15986 0.0764,0.191 0.067,0.4192 -0.0209,0.50712 -0.0879,0.0879 -0.15046,-0.0684 -0.13897,-0.34726 z m 29.36875,0 c 0.0127,-0.30823 0.0754,-0.37092 0.15985,-0.15986 0.0764,0.191 0.067,0.4192 -0.0209,0.50712 -0.0879,0.0879 -0.15046,-0.0684 -0.13897,-0.34726 z m -96.8375,-2.91042 c 0.0127,-0.30823 0.0754,-0.37092 0.15985,-0.15985 0.0764,0.19099 0.067,0.41919 -0.0209,0.50711 -0.0879,0.0879 -0.15045,-0.0684 -0.13896,-0.34726 z m 118.034859,-1.56545 c 0.005,-0.43657 0.0647,-0.58313 0.13177,-0.3257 0.0671,0.25743 0.0627,0.61462 -0.01,0.79375 -0.0725,0.17913 -0.12737,-0.0315 -0.12197,-0.46805 z m -118.299449,-0.28664 c 0.0127,-0.30822 0.0754,-0.37091 0.15986,-0.15985 0.0764,0.191 0.067,0.4192 -0.0209,0.50712 -0.0879,0.0879 -0.15045,-0.0684 -0.13897,-0.34727 z m 33.91697,-4.79151 c 0.25743,-0.0671 0.61461,-0.0627 0.79375,0.01 0.17913,0.0725 -0.0315,0.12736 -0.46806,0.12197 -0.43656,-0.005 -0.58313,-0.0647 -0.32569,-0.13178 z m 3.43958,0 c 0.25743,-0.0671 0.61462,-0.0627 0.79375,0.01 0.17913,0.0725 -0.0315,0.12736 -0.46806,0.12197 -0.43656,-0.005 -0.58312,-0.0647 -0.32569,-0.13178 z m 43.12708,0 c 0.25743,-0.0671 0.61462,-0.0627 0.79375,0.01 0.17913,0.0725 -0.0315,0.12736 -0.46805,0.12197 -0.43657,-0.005 -0.58313,-0.0647 -0.3257,-0.13178 z m 3.43959,0 c 0.25743,-0.0671 0.61462,-0.0627 0.79375,0.01 0.17913,0.0725 -0.0315,0.12736 -0.46806,0.12197 -0.43656,-0.005 -0.58313,-0.0647 -0.32569,-0.13178 z m -83.92322,-0.50015 c 0.0127,-0.30823 0.0754,-0.37092 0.15986,-0.15986 0.0764,0.191 0.067,0.4192 -0.0209,0.50712 -0.0879,0.0879 -0.15045,-0.0684 -0.13897,-0.34726 z m 116.097449,-4.54202 c -0.3291,-0.41964 -0.31975,-0.429 0.0999,-0.0999 0.44073,0.34564 0.58089,0.56291 0.36312,0.56291 -0.0549,0 -0.2633,-0.20836 -0.46302,-0.46302 z m -1.85208,-1.85208 c -0.32911,-0.41965 -0.31975,-0.429 0.0999,-0.0999 0.44073,0.34565 0.58088,0.56292 0.36312,0.56292 -0.0549,0 -0.2633,-0.20836 -0.46302,-0.46302 z m -57.182399,0.0232 c 0.1819,-0.0734 0.47956,-0.0734 0.66146,0 0.1819,0.0734 0.0331,0.13345 -0.33073,0.13345 -0.3638,0 -0.51263,-0.06 -0.33073,-0.13345 z m 3.96875,0 c 0.1819,-0.0734 0.47956,-0.0734 0.66146,0 0.1819,0.0734 0.0331,0.13345 -0.33073,0.13345 -0.3638,0 -0.51263,-0.06 -0.33073,-0.13345 z m 16.15612,-4.50343 c 0.191,-0.0764 0.4192,-0.067 0.50712,0.0209 0.0879,0.0879 -0.0683,0.15045 -0.34726,0.13896 -0.30823,-0.0127 -0.37092,-0.0754 -0.15986,-0.15985 z m -36.5125,-0.26458 c 0.191,-0.0764 0.4192,-0.067 0.50712,0.0209 0.0879,0.0879 -0.0684,0.15046 -0.34726,0.13897 -0.30823,-0.0127 -0.37092,-0.0754 -0.15986,-0.15985 z m 38.1,0 c 0.191,-0.0764 0.4192,-0.067 0.50712,0.0209 0.0879,0.0879 -0.0684,0.15046 -0.34726,0.13897 -0.30823,-0.0127 -0.37092,-0.0754 -0.15986,-0.15985 z m 1.85209,-0.26459 c 0.19099,-0.0764 0.4192,-0.067 0.50712,0.0209 0.0879,0.0879 -0.0684,0.15046 -0.34727,0.13897 -0.30823,-0.0127 -0.37092,-0.0754 -0.15985,-0.15986 z m -43.12709,-0.26458 c 0.191,-0.0764 0.4192,-0.067 0.50712,0.0209 0.0879,0.0879 -0.0683,0.15045 -0.34726,0.13896 -0.30823,-0.0127 -0.37092,-0.0754 -0.15986,-0.15985 z m 45.22722,0.006 c 0.1819,-0.0734 0.47955,-0.0734 0.66145,0 0.18191,0.0734 0.0331,0.13345 -0.33072,0.13345 -0.36381,0 -0.51263,-0.06 -0.33073,-0.13345 z m 16.15612,-0.006 c 0.19099,-0.0764 0.4192,-0.067 0.50712,0.0209 0.0879,0.0879 -0.0684,0.15045 -0.34727,0.13896 -0.30823,-0.0127 -0.37092,-0.0754 -0.15985,-0.15985 z m -82.55001,-0.26458 c 0.191,-0.0764 0.4192,-0.067 0.50712,0.0209 0.0879,0.0879 -0.0684,0.15045 -0.34726,0.13896 -0.30823,-0.0127 -0.37092,-0.0754 -0.15986,-0.15985 z m 19.31459,0 c 0.19099,-0.0764 0.4192,-0.067 0.50712,0.0209 0.0879,0.0879 -0.0684,0.15045 -0.34727,0.13896 -0.30822,-0.0127 -0.37092,-0.0754 -0.15985,-0.15985 z m 50.25738,-0.006 c 0.32912,-0.0633 0.80537,-0.0609 1.05833,0.005 0.25297,0.0662 -0.0163,0.118 -0.59839,0.11506 -0.58209,-0.003 -0.78906,-0.0571 -0.45994,-0.1204 z m 9.65421,0.005 c 0.25466,-0.0666 0.67138,-0.0666 0.92604,0 0.25466,0.0666 0.0463,0.121 -0.46302,0.121 -0.50932,0 -0.71768,-0.0545 -0.46302,-0.121 z m -77.39063,-0.25742 c 0.1819,-0.0734 0.47956,-0.0734 0.66146,0 0.1819,0.0734 0.0331,0.13345 -0.33073,0.13345 -0.3638,0 -0.51263,-0.0601 -0.33073,-0.13345 z m 15.08125,0 c 0.1819,-0.0734 0.47956,-0.0734 0.66146,0 0.1819,0.0734 0.0331,0.13345 -0.33073,0.13345 -0.3638,0 -0.51263,-0.0601 -0.33073,-0.13345 z m -12.30312,-0.27174 c 0.25466,-0.0666 0.67138,-0.0666 0.92604,0 0.25466,0.0666 0.0463,0.121 -0.46302,0.121 -0.50933,0 -0.71768,-0.0545 -0.46302,-0.121 z m 8.59896,-0.004 c 0.32742,-0.0631 0.8632,-0.0631 1.19062,0 0.32742,0.0631 0.0595,0.11466 -0.59531,0.11466 -0.65485,0 -0.92274,-0.0516 -0.59531,-0.11466 z"
       style="fill:#e6e6e6;fill-opacity:1;stroke-width:0.26458335" />
    <path
       inkscape:connector-curvature="0"
       id="path889"
       d="m -96.281401,336.64131 c 0.191,-0.0764 0.4192,-0.067 0.50712,0.0209 0.0879,0.0879 -0.0683,0.15046 -0.34726,0.13897 -0.30823,-0.0127 -0.37092,-0.0754 -0.15986,-0.15985 z m 1.32292,0 c 0.19099,-0.0764 0.4192,-0.067 0.50712,0.0209 0.0879,0.0879 -0.0684,0.15046 -0.34727,0.13897 -0.30822,-0.0127 -0.37092,-0.0754 -0.15985,-0.15985 z m -3.53891,-1.20833 -0.77711,-0.85989 0.8599,0.7771 c 0.80154,0.72437 0.98151,0.94269 0.77711,0.94269 -0.0455,0 -0.43249,-0.38695 -0.8599,-0.8599 z m 5.17602,0.77711 c 0,-0.0455 0.38695,-0.43249 0.8599,-0.8599 l 0.85989,-0.7771 -0.7771,0.85989 c -0.72437,0.80155 -0.94269,0.98152 -0.94269,0.77711 z m -6.32911,-2.98197 c 0.0127,-0.30822 0.0754,-0.37092 0.15985,-0.15985 0.0764,0.19099 0.067,0.4192 -0.0209,0.50712 -0.0879,0.0879 -0.15045,-0.0684 -0.13896,-0.34727 z m 8.20208,0 c 0.0127,-0.30822 0.0754,-0.37092 0.15985,-0.15985 0.0764,0.19099 0.067,0.4192 -0.0209,0.50712 -0.0879,0.0879 -0.15046,-0.0684 -0.13897,-0.34727 z m -78.271409,-38.92179 c 0.25466,-0.0666 0.67138,-0.0666 0.92604,0 0.25466,0.0666 0.0463,0.121 -0.46302,0.121 -0.50932,0 -0.71768,-0.0544 -0.46302,-0.121 z m 3.83954,-0.005 c 0.32912,-0.0633 0.80537,-0.0609 1.05834,0.005 0.25296,0.0662 -0.0163,0.118 -0.5984,0.11506 -0.58208,-0.003 -0.78905,-0.0571 -0.45994,-0.1204 z m 46.83125,0 c 0.32912,-0.0633 0.80537,-0.0609 1.05834,0.005 0.25296,0.0662 -0.0163,0.118 -0.5984,0.11506 -0.58208,-0.003 -0.78905,-0.0571 -0.45994,-0.1204 z m 3.83338,0.005 c 0.25466,-0.0666 0.67138,-0.0666 0.92604,0 0.25466,0.0666 0.0463,0.121 -0.46302,0.121 -0.50932,0 -0.71768,-0.0544 -0.46302,-0.121 z m -48.00534,-0.26294 c 0.19099,-0.0764 0.4192,-0.067 0.50712,0.0209 0.0879,0.0879 -0.0684,0.15046 -0.34727,0.13897 -0.30822,-0.0127 -0.37092,-0.0754 -0.15985,-0.15985 z m 42.06875,0 c 0.19099,-0.0764 0.4192,-0.067 0.50712,0.0209 0.0879,0.0879 -0.0684,0.15046 -0.34727,0.13897 -0.30822,-0.0127 -0.37092,-0.0754 -0.15985,-0.15985 z m 8.73125,0 c 0.19099,-0.0764 0.4192,-0.067 0.50712,0.0209 0.0879,0.0879 -0.0684,0.15046 -0.34727,0.13897 -0.30822,-0.0127 -0.37092,-0.0754 -0.15985,-0.15985 z m 18.041279,-4.68166 c 0,-0.0549 0.20836,-0.2633 0.46302,-0.46302 0.41964,-0.32911 0.429,-0.31975 0.0999,0.0999 -0.34564,0.44073 -0.56291,0.58089 -0.56291,0.36312 z m -57.943759,-0.52916 c 0,-0.0549 0.20836,-0.2633 0.46303,-0.46303 0.41964,-0.3291 0.429,-0.31974 0.0999,0.0999 -0.34564,0.44073 -0.56292,0.58089 -0.56292,0.36313 z m 20.07459,-0.36313 c -0.32911,-0.41964 -0.31975,-0.429 0.0999,-0.0999 0.44073,0.34565 0.58089,0.56292 0.36313,0.56292 -0.0549,0 -0.2633,-0.20836 -0.46302,-0.46302 z m 40.250419,-1.25677 c 0.34177,-0.3638 0.68094,-0.66146 0.7537,-0.66146 0.0728,0 -0.14734,0.29766 -0.48912,0.66146 -0.34178,0.3638 -0.68094,0.66146 -0.7537,0.66146 -0.0728,0 0.14734,-0.29766 0.48912,-0.66146 z m -58.737509,0.29698 c 0,-0.0549 0.20836,-0.2633 0.46303,-0.46302 0.41964,-0.32911 0.429,-0.31975 0.0999,0.0999 -0.34564,0.44073 -0.56292,0.58089 -0.56292,0.36313 z m 16.89959,-0.36313 c -0.32911,-0.41964 -0.31975,-0.429 0.0999,-0.0999 0.25467,0.19972 0.46303,0.40808 0.46303,0.46302 0,0.21776 -0.21728,0.0776 -0.56292,-0.36313 z m 37.207709,-0.33072 c 0.26339,-0.29105 0.53842,-0.52917 0.61118,-0.52917 0.0728,0 -0.0832,0.23812 -0.3466,0.52917 -0.26339,0.29104 -0.53842,0.52916 -0.61118,0.52916 -0.0728,0 0.0832,-0.23812 0.3466,-0.52916 z m -90.777229,-0.33073 -0.50402,-0.59532 0.59531,0.50403 c 0.55944,0.47366 0.71576,0.6866 0.50403,0.6866 -0.0502,0 -0.3181,-0.26789 -0.59532,-0.59531 z m 92.497019,-1.07498 c 0,-0.0455 0.38695,-0.43249 0.8599,-0.8599 l 0.85989,-0.7771 -0.7771,0.85989 c -0.72437,0.80155 -0.94269,0.98151 -0.94269,0.77711 z m -48.997529,-1.42087 c 0.191,-0.0764 0.4192,-0.067 0.50712,0.0209 0.0879,0.0879 -0.0683,0.15045 -0.34726,0.13896 -0.30823,-0.0127 -0.37092,-0.0754 -0.15986,-0.15985 z m 3.43959,0 c 0.19099,-0.0764 0.4192,-0.067 0.50711,0.0209 0.0879,0.0879 -0.0684,0.15045 -0.34726,0.13896 -0.30823,-0.0127 -0.37092,-0.0754 -0.15985,-0.15985 z m -51.17241,-1.73749 -0.50403,-0.59531 0.59531,0.50403 c 0.55945,0.47366 0.71577,0.68659 0.50403,0.68659 -0.0502,0 -0.31809,-0.26789 -0.59531,-0.59531 z m 99.376179,0.23084 c 0,-0.055 0.20836,-0.2633 0.46302,-0.46303 0.41965,-0.3291 0.42901,-0.31974 0.0999,0.0999 -0.34564,0.44073 -0.56292,0.58089 -0.56292,0.36313 z m -75.985029,-5.10793 c 0.191,-0.0764 0.4192,-0.067 0.50712,0.0209 0.0879,0.0879 -0.0684,0.15046 -0.34726,0.13897 -0.30823,-0.0127 -0.37092,-0.0754 -0.15986,-0.15985 z m 5.55626,0 c 0.19099,-0.0764 0.41919,-0.067 0.50711,0.0209 0.0879,0.0879 -0.0684,0.15046 -0.34726,0.13897 -0.30823,-0.0127 -0.37092,-0.0754 -0.15985,-0.15985 z m 41.01041,0 c 0.191,-0.0764 0.4192,-0.067 0.50712,0.0209 0.0879,0.0879 -0.0683,0.15046 -0.34726,0.13897 -0.30823,-0.0127 -0.37092,-0.0754 -0.15986,-0.15985 z m 5.55625,0 c 0.191,-0.0764 0.4192,-0.067 0.50712,0.0209 0.0879,0.0879 -0.0683,0.15046 -0.34726,0.13897 -0.30823,-0.0127 -0.37092,-0.0754 -0.15986,-0.15985 z m -61.34797,-4.25103 -0.91179,-0.99219 0.99218,0.9118 c 0.92351,0.84868 1.11384,1.07257 0.9118,1.07257 -0.0442,0 -0.4907,-0.44648 -0.99219,-0.99218 z m 24.09133,0.0661 c 0.49366,-0.50932 0.95709,-0.92604 1.02985,-0.92604 0.0728,0 -0.27161,0.41672 -0.76527,0.92604 -0.49365,0.50933 -0.95708,0.92604 -1.02984,0.92604 -0.0728,0 0.27161,-0.41671 0.76526,-0.92604 z m 22.47534,-0.0661 -0.9118,-0.99219 0.99219,0.9118 c 0.5457,0.50149 0.99219,0.94797 0.99219,0.99219 0,0.20204 -0.2239,0.0117 -1.07258,-0.9118 z m 24.09133,0.0661 c 0.49365,-0.50932 0.95708,-0.92604 1.02984,-0.92604 0.0728,0 -0.2716,0.41672 -0.76526,0.92604 -0.49365,0.50933 -0.95708,0.92604 -1.02984,0.92604 -0.0728,0 0.2716,-0.41671 0.76526,-0.92604 z m 23.304219,-8.75329 c 0.0127,-0.30823 0.0754,-0.37092 0.15985,-0.15986 0.0764,0.191 0.067,0.4192 -0.0209,0.50712 -0.0879,0.0879 -0.15046,-0.0684 -0.13897,-0.34726 z m 0.26459,-1.5875 c 0.0127,-0.30823 0.0754,-0.37092 0.15985,-0.15986 0.0764,0.191 0.067,0.4192 -0.0209,0.50712 -0.0879,0.0879 -0.15045,-0.0683 -0.13896,-0.34726 z m -94.212559,-2.09462 c 0.49365,-0.50933 0.95708,-0.92605 1.02984,-0.92605 0.0728,0 -0.2716,0.41672 -0.76526,0.92605 -0.49365,0.50932 -0.95708,0.92604 -1.02984,0.92604 -0.0728,0 0.2716,-0.41672 0.76526,-0.92604 z m 24.06284,-0.0661 -0.9118,-0.99219 0.99219,0.9118 c 0.9235,0.84868 1.11384,1.07258 0.9118,1.07258 -0.0442,0 -0.4907,-0.44649 -0.99219,-0.99219 z m 22.50383,0.0661 c 0.49365,-0.50933 0.95708,-0.92605 1.02984,-0.92605 0.0728,0 -0.27161,0.41672 -0.76526,0.92605 -0.49366,0.50932 -0.95709,0.92604 -1.02985,0.92604 -0.0728,0 0.27161,-0.41672 0.76527,-0.92604 z m 24.06284,-0.0661 -0.9118,-0.99219 0.99219,0.9118 c 0.5457,0.50149 0.99218,0.94797 0.99218,0.99219 0,0.20204 -0.22389,0.0117 -1.07257,-0.9118 z m -94.37529,-0.7276 c 0.003,-0.58209 0.0571,-0.78906 0.12041,-0.45994 0.0633,0.32912 0.0609,0.80537 -0.005,1.05833 -0.0662,0.25297 -0.11801,-0.0163 -0.11507,-0.59839 z m 118.268749,0 c 0.003,-0.58209 0.0571,-0.78906 0.12041,-0.45994 0.0633,0.32912 0.0609,0.80537 -0.005,1.05833 -0.0662,0.25297 -0.118,-0.0163 -0.11506,-0.59839 z M -201.2296,256.91789 c 0,-0.3638 0.0601,-0.51263 0.13346,-0.33073 0.0734,0.1819 0.0734,0.47956 0,0.66146 -0.0734,0.1819 -0.13346,0.0331 -0.13346,-0.33073 z m 118.268749,0 c 0,-0.3638 0.0601,-0.51263 0.13346,-0.33073 0.0734,0.1819 0.0734,0.47956 0,0.66146 -0.0734,0.1819 -0.13346,0.0331 -0.13346,-0.33073 z m -85.287219,-0.44533 c 0.191,-0.0764 0.4192,-0.067 0.50712,0.0209 0.0879,0.0879 -0.0684,0.15045 -0.34726,0.13896 -0.30823,-0.0127 -0.37092,-0.0754 -0.15986,-0.15985 z m 5.55626,0 c 0.19099,-0.0764 0.41919,-0.067 0.50711,0.0209 0.0879,0.0879 -0.0684,0.15045 -0.34726,0.13896 -0.30823,-0.0127 -0.37092,-0.0754 -0.15985,-0.15985 z m 41.01041,0 c 0.191,-0.0764 0.4192,-0.067 0.50712,0.0209 0.0879,0.0879 -0.0683,0.15045 -0.34726,0.13896 -0.30823,-0.0127 -0.37092,-0.0754 -0.15986,-0.15985 z m 5.55625,0 c 0.191,-0.0764 0.4192,-0.067 0.50712,0.0209 0.0879,0.0879 -0.0683,0.15045 -0.34726,0.13896 -0.30823,-0.0127 -0.37092,-0.0754 -0.15986,-0.15985 z m 30.054679,-5.97082 -0.50403,-0.59531 0.59532,0.50403 c 0.55944,0.47366 0.71576,0.68659 0.50403,0.68659 -0.0502,0 -0.3181,-0.26789 -0.59532,-0.59531 z m -112.555069,-0.0166 c 0,-0.0455 0.38695,-0.43249 0.8599,-0.8599 l 0.85989,-0.7771 -0.7771,0.85989 c -0.72437,0.80155 -0.94269,0.98151 -0.94269,0.77711 z m 56.57123,-0.62712 c 0.19099,-0.0764 0.4192,-0.067 0.50711,0.0209 0.0879,0.0879 -0.0684,0.15045 -0.34726,0.13896 -0.30823,-0.0127 -0.37092,-0.0754 -0.15985,-0.15985 z m 2.91041,-0.26458 c 0.191,-0.0764 0.4192,-0.067 0.50712,0.0209 0.0879,0.0879 -0.0684,0.15046 -0.34726,0.13897 -0.30823,-0.0127 -0.37092,-0.0754 -0.15986,-0.15985 z m 17.4625,-4.7625 c 0.191,-0.0764 0.4192,-0.067 0.50712,0.0209 0.0879,0.0879 -0.0683,0.15046 -0.34726,0.13897 -0.30823,-0.0127 -0.37092,-0.0754 -0.15986,-0.15985 z m 22.224999,0 c 0.191,-0.0764 0.4192,-0.067 0.50712,0.0209 0.0879,0.0879 -0.0684,0.15046 -0.34726,0.13897 -0.30823,-0.0127 -0.37092,-0.0754 -0.15986,-0.15985 z m -63.235409,-0.26459 c 0.19099,-0.0764 0.41919,-0.067 0.50711,0.0209 0.0879,0.0879 -0.0684,0.15046 -0.34726,0.13897 -0.30823,-0.0127 -0.37092,-0.0754 -0.15985,-0.15986 z m 42.84596,0.006 c 0.1819,-0.0734 0.47956,-0.0734 0.66146,0 0.1819,0.0734 0.0331,0.13346 -0.33073,0.13346 -0.3638,0 -0.51263,-0.0601 -0.33073,-0.13346 z m 18.80195,-0.006 c 0.191,-0.0764 0.4192,-0.067 0.50712,0.0209 0.0879,0.0879 -0.0684,0.15046 -0.34726,0.13897 -0.30823,-0.0127 -0.37092,-0.0754 -0.15986,-0.15986 z m -16.28337,-0.26719 c 0.25743,-0.0671 0.61462,-0.0627 0.79375,0.01 0.17913,0.0725 -0.0315,0.12736 -0.46806,0.12197 -0.43656,-0.005 -0.58313,-0.0647 -0.32569,-0.13177 z m 13.75833,0 c 0.25743,-0.0671 0.61462,-0.0627 0.79375,0.01 0.17913,0.0725 -0.0315,0.12736 -0.46806,0.12197 -0.43656,-0.005 -0.58312,-0.0647 -0.32569,-0.13177 z m -80.55413,-0.26197 c 0.191,-0.0764 0.4192,-0.067 0.50712,0.0209 0.0879,0.0879 -0.0684,0.15045 -0.34726,0.13896 -0.30823,-0.0127 -0.37092,-0.0754 -0.15986,-0.15985 z m 17.44597,0.006 c 0.1819,-0.0734 0.47956,-0.0734 0.66146,0 0.1819,0.0734 0.0331,0.13345 -0.33073,0.13345 -0.3638,0 -0.51263,-0.06 -0.33073,-0.13345 z m 54.63646,-0.0214 c 1.12778,-0.0496 2.97325,-0.0496 4.10104,0 1.12779,0.0496 0.20505,0.0902 -2.05052,0.0902 -2.25557,0 -3.17831,-0.0406 -2.05052,-0.0902 z m -69.9823,-0.24315 c 0.18191,-0.0734 0.47956,-0.0734 0.66146,0 0.1819,0.0734 0.0331,0.13346 -0.33073,0.13346 -0.3638,0 -0.51263,-0.0601 -0.33073,-0.13346 z m 12.83733,-0.008 c 0.25743,-0.0671 0.61462,-0.0627 0.79375,0.01 0.17913,0.0725 -0.0315,0.12736 -0.46805,0.12197 -0.43657,-0.005 -0.58313,-0.0647 -0.3257,-0.13177 z m -8.20712,-0.27743 c 0.98227,-0.0509 2.58961,-0.0509 3.57188,0 0.98226,0.0509 0.17859,0.0926 -1.78594,0.0926 -1.96453,0 -2.7682,-0.0417 -1.78594,-0.0926 z"
       style="fill:#8c8c8c;fill-opacity:1;stroke-width:0.26458335" />
    <g
       id="g2722">
      <g
         transform="matrix(1.1106938,0,0,1.1106938,-0.46860377,-32.407454)"
         id="g2137">
        <g
           id="g861"
           transform="matrix(0.79750744,0,0,0.79750744,10.129049,59.943839)"
           style="fill:#7f8c8d;fill-opacity:1;stroke:none">
          <path
             inkscape:connector-curvature="0"
             id="path885"
             d="m -6.1371327,292.36963 c -0.3673997,0.22048 -0.7958755,0.34992 -1.255546,0.34993 -0.4595306,-10e-6 -0.8877827,-0.12914 -1.2551089,-0.34949 -0.946503,0.81469 -1.7702044,2.4404 -1.8077404,4.34722 h 6.1256997 c -0.037539,-1.90703 -0.860727,-3.53308 -1.8073044,-4.34766 z"
             style="fill:#7f8c8d;fill-opacity:1;stroke:none;stroke-width:0.22367413;stroke-miterlimit:4;stroke-dasharray:none;stroke-opacity:0.25098039" />
          <path
             sodipodi:nodetypes="ccccc"
             inkscape:connector-curvature="0"
             id="path883"
             d="m -7.392545,287.15893 c -1.3515146,6e-5 -2.4469876,1.09588 -2.4466004,2.44744 6.51e-5,1.35117 1.0954077,2.44652 2.4466004,2.44653 1.3511905,-1e-5 2.4465328,-1.09536 2.4465959,-2.44653 3.916e-4,-1.35156 -1.0950835,-2.44738 -2.4465959,-2.44744 z"
             style="fill:#7f8c8d;fill-opacity:1;stroke:none;stroke-width:0.22367413;stroke-miterlimit:4;stroke-dasharray:none;stroke-opacity:0.25098039" />
        </g>
        <path
           inkscape:connector-curvature="0"
           id="path887"
           d="m 2.9299276,292.20267 c -0.4852045,-0.053 -0.9620408,-0.4131 -1.2219129,-0.92261 -0.1124763,-0.22053 -0.1696941,-0.40724 -0.1899509,-0.61985 -0.022027,-0.23116 0.020436,-0.36674 0.1572279,-0.50198 0.191367,-0.18921 0.5220926,-0.27975 1.0209232,-0.27949 0.4461783,2.3e-4 0.8476392,0.0697 1.1674087,0.20209 0.1422794,0.0589 0.2458322,0.0801 0.3871067,0.0793 0.1388606,-7.8e-4 0.2135795,-0.0177 0.3878441,-0.088 0.1411829,-0.057 0.3544318,-0.1106 0.5616728,-0.14137 0.1148615,-0.0171 0.2228243,-0.0217 0.5051922,-0.0215 0.318895,1.4e-4 0.3748231,0.003 0.499401,0.0269 0.4517177,0.0862 0.698408,0.26322 0.7422431,0.53255 0.031739,0.19501 -0.047184,0.56445 -0.1749109,0.81877 -0.128495,0.25585 -0.3470629,0.51334 -0.5589726,0.65851 -0.2906319,0.1991 -0.6190481,0.28933 -0.9350382,0.2569 -0.2211418,-0.0227 -0.3715081,-0.0869 -0.552673,-0.23613 -0.2247039,-0.18504 -0.3342709,-0.23791 -0.4930183,-0.23791 -0.1587477,0 -0.2683146,0.0529 -0.4930188,0.23791 -0.1814437,0.14943 -0.3314854,0.21343 -0.5537606,0.23625 -0.06844,0.007 -0.133443,0.0121 -0.1444504,0.0111 -0.011008,-7.8e-4 -0.061098,-0.006 -0.1113131,-0.0116 z m 0.4556708,-0.79001 c 0.1335641,-0.0342 0.244631,-0.0926 0.3244317,-0.17066 0.092917,-0.0909 0.1234478,-0.1538 0.1300159,-0.26778 0.0075,-0.13013 -0.024654,-0.21066 -0.1234296,-0.30914 -0.2696937,-0.26891 -0.8330451,-0.27266 -1.1042064,-0.007 -0.1051983,0.10293 -0.1267405,0.15258 -0.1267405,0.29212 0,0.0986 0.00429,0.12371 0.029141,0.1704 0.069137,0.12989 0.2308739,0.24301 0.4172669,0.29185 0.1243908,0.0326 0.327323,0.0328 0.4535212,4.8e-4 z m 2.1425005,0 c 0.133564,-0.0342 0.2446305,-0.0926 0.3244319,-0.17066 0.092917,-0.0909 0.123447,-0.1538 0.1300157,-0.26778 0.0075,-0.13013 -0.024655,-0.21066 -0.1234299,-0.30914 -0.2696932,-0.26891 -0.8330447,-0.27266 -1.1042062,-0.007 -0.1051984,0.10293 -0.1267405,0.15258 -0.1267405,0.29212 0,0.0986 0.00429,0.12371 0.029141,0.1704 0.069137,0.12989 0.2308737,0.24301 0.4172672,0.29185 0.1243907,0.0326 0.3273232,0.0328 0.4535213,4.8e-4 z"
           style="fill:#333333;fill-opacity:1;stroke-width:0.0121733"
           sodipodi:nodetypes="ccccccccccccccccsccccccccccscccccccccscccc" />
      </g>
    </g>
    <path
       sodipodi:nodetypes="cccccccccccccccccccccccccccccsccccccccccscccccccccscccc"
       style="fill:#333333;fill-opacity:1;stroke-width:0.01553841"
       d="m 16.488506,296.2742 c -0.07112,-0.0166 -0.155944,-0.10451 -0.173403,-0.17978 -0.0078,-0.0335 -0.01428,-1.63699 -0.01448,-2.2701 l -3.41e-4,-1.15092 0.128191,-0.0878 c 0.07051,-0.0483 0.180634,-0.13283 0.24473,-0.18786 l 0.116538,-0.10006 0.0046,1.3077 c 0.0025,0.71924 1.76e-4,2.40337 -0.0052,2.449 -0.0077,0.0655 -0.02136,0.0958 -0.06484,0.14394 -0.04912,0.0544 -0.07205,0.0663 -0.15987,0.0836 -0.01282,0.002 -0.04697,-0.001 -0.0759,-0.008 z m -4.337008,-3.54559 c -0.619332,-0.0677 -1.227981,-0.52729 -1.559691,-1.17765 -0.143568,-0.28149 -0.216603,-0.51981 -0.242459,-0.79119 -0.02812,-0.29507 0.02608,-0.46812 0.200691,-0.64075 0.244267,-0.24151 0.666416,-0.35708 1.30314,-0.35675 0.569517,2.9e-4 1.081955,0.089 1.490119,0.25796 0.18161,0.0752 0.313789,0.10227 0.494116,0.10128 0.177246,-10e-4 0.27262,-0.0226 0.495057,-0.11228 0.180211,-0.0727 0.452409,-0.14117 0.716938,-0.18044 0.146613,-0.0218 0.28442,-0.0277 0.644844,-0.0275 0.407049,1.8e-4 0.478437,0.004 0.637452,0.0344 0.576588,0.11005 0.891472,0.33599 0.947424,0.67977 0.04051,0.24891 -0.06023,0.72048 -0.223262,1.0451 -0.164015,0.32658 -0.443003,0.65524 -0.713491,0.84055 -0.370972,0.25413 -0.790174,0.36931 -1.193514,0.32791 -0.282273,-0.029 -0.474205,-0.11096 -0.70545,-0.3014 -0.28682,-0.2362 -0.426675,-0.30368 -0.629305,-0.30368 -0.202631,0 -0.342486,0.0675 -0.629306,0.30368 -0.231601,0.19073 -0.423119,0.27243 -0.706838,0.30155 -0.08736,0.009 -0.170332,0.0154 -0.184382,0.0142 -0.01405,-0.001 -0.07799,-0.008 -0.142083,-0.0148 z m 0.581633,-1.00839 c 0.170486,-0.0436 0.312255,-0.11817 0.414115,-0.21784 0.118603,-0.11604 0.157573,-0.19631 0.165957,-0.3418 0.0096,-0.1661 -0.03147,-0.26889 -0.15755,-0.3946 -0.344246,-0.34325 -1.063326,-0.34803 -1.409445,-0.009 -0.134279,0.13138 -0.161776,0.19476 -0.161776,0.37288 0,0.12589 0.0055,0.1579 0.0372,0.2175 0.08825,0.1658 0.294695,0.31019 0.532613,0.37252 0.158777,0.0416 0.417806,0.0419 0.57889,6.2e-4 z m 2.734759,0 c 0.170485,-0.0436 0.312255,-0.11817 0.414116,-0.21784 0.118602,-0.11604 0.157572,-0.19631 0.165956,-0.3418 0.0096,-0.1661 -0.03147,-0.26889 -0.15755,-0.3946 -0.344245,-0.34325 -1.063326,-0.34803 -1.409446,-0.009 -0.134278,0.13138 -0.161775,0.19476 -0.161775,0.37288 0,0.12589 0.0055,0.1579 0.0372,0.2175 0.08825,0.1658 0.294694,0.31019 0.532613,0.37252 0.158777,0.0416 0.417806,0.0419 0.57889,6.2e-4 z"
       id="path896"
       inkscape:connector-curvature="0" />
    <rect
       y="288.53333"
       x="-11.122876"
       height="8.4666672"
       width="8.4666672"
       id="rect2123"
       style="fill:#7f8c8d;fill-opacity:1;stroke:none;stroke-width:0.13863549;stroke-miterlimit:4;stroke-dasharray:none;stroke-opacity:1" />
    <g
       transform="matrix(0.79750744,0,0,0.79750744,-0.99382699,59.943839)"
       id="g2129">
      <path
         style="fill:#ffffff;fill-opacity:1;stroke:#303438;stroke-width:0.22367413;stroke-miterlimit:4;stroke-dasharray:none;stroke-opacity:0.25098039"
         d="m -6.1371327,292.36963 c -0.3673997,0.22048 -0.7958755,0.34992 -1.255546,0.34993 -0.4595306,-10e-6 -0.8877827,-0.12914 -1.2551089,-0.34949 -0.946503,0.81469 -1.7702044,2.4404 -1.8077404,4.34722 h 6.1256997 c -0.037539,-1.90703 -0.860727,-3.53308 -1.8073044,-4.34766 z"
         id="path2125"
         inkscape:connector-curvature="0" />
      <path
         style="fill:#ffffff;fill-opacity:1;stroke:#303438;stroke-width:0.22367413;stroke-miterlimit:4;stroke-dasharray:none;stroke-opacity:0.25098039"
         d="m -7.392545,287.15893 c -1.3515146,6e-5 -2.4469876,1.09588 -2.4466004,2.44744 6.51e-5,1.35117 1.0954077,2.44652 2.4466004,2.44653 1.3511905,-1e-5 2.4465328,-1.09536 2.4465959,-2.44653 3.916e-4,-1.35156 -1.0950835,-2.44738 -2.4465959,-2.44744 z"
         id="path2127"
         inkscape:connector-curvature="0"
         sodipodi:nodetypes="ccccc" />
    </g>
    <path
       sodipodi:nodetypes="ccccccccccccccccsccccccccccscccccccccscccc"
       style="fill:#333333;fill-opacity:1;stroke-width:0.0121733"
       d="m -8.1929484,292.20267 c -0.4852045,-0.053 -0.9620408,-0.4131 -1.2219129,-0.92261 -0.1124763,-0.22053 -0.1696941,-0.40724 -0.1899509,-0.61985 -0.022027,-0.23116 0.020436,-0.36674 0.1572279,-0.50198 0.191367,-0.18921 0.5220926,-0.27975 1.0209232,-0.27949 0.4461783,2.3e-4 0.8476392,0.0697 1.1674087,0.20209 0.1422794,0.0589 0.2458322,0.0801 0.3871067,0.0793 0.1388606,-7.8e-4 0.2135795,-0.0177 0.3878441,-0.088 0.1411829,-0.057 0.3544318,-0.1106 0.5616728,-0.14137 0.1148615,-0.0171 0.2228243,-0.0217 0.5051922,-0.0215 0.318895,1.4e-4 0.3748231,0.003 0.499401,0.0269 0.4517177,0.0862 0.698408,0.26322 0.7422431,0.53255 0.031739,0.19501 -0.047184,0.56445 -0.1749109,0.81877 -0.128495,0.25585 -0.3470629,0.51334 -0.5589726,0.65851 -0.2906319,0.1991 -0.6190481,0.28933 -0.9350382,0.2569 -0.2211418,-0.0227 -0.3715081,-0.0869 -0.552673,-0.23613 -0.2247039,-0.18504 -0.3342709,-0.23791 -0.4930183,-0.23791 -0.1587477,0 -0.2683146,0.0529 -0.4930188,0.23791 -0.1814437,0.14943 -0.3314854,0.21343 -0.5537606,0.23625 -0.06844,0.007 -0.133443,0.0121 -0.1444504,0.0111 -0.011008,-7.8e-4 -0.061098,-0.006 -0.1113131,-0.0116 z m 0.4556708,-0.79001 c 0.1335641,-0.0342 0.244631,-0.0926 0.3244317,-0.17066 0.092917,-0.0909 0.1234478,-0.1538 0.1300159,-0.26778 0.0075,-0.13013 -0.024654,-0.21066 -0.1234296,-0.30914 -0.2696937,-0.26891 -0.8330451,-0.27266 -1.1042064,-0.007 -0.1051983,0.10293 -0.1267405,0.15258 -0.1267405,0.29212 0,0.0986 0.00429,0.12371 0.029141,0.1704 0.069137,0.12989 0.2308739,0.24301 0.4172669,0.29185 0.1243908,0.0326 0.327323,0.0328 0.4535212,4.8e-4 z m 2.1425005,0 c 0.133564,-0.0342 0.2446305,-0.0926 0.3244319,-0.17066 0.092917,-0.0909 0.123447,-0.1538 0.1300157,-0.26778 0.0075,-0.13013 -0.024655,-0.21066 -0.1234299,-0.30914 -0.2696932,-0.26891 -0.8330447,-0.27266 -1.1042062,-0.007 -0.1051984,0.10293 -0.1267405,0.15258 -0.1267405,0.29212 0,0.0986 0.00429,0.12371 0.029141,0.1704 0.069137,0.12989 0.2308737,0.24301 0.4172672,0.29185 0.1243907,0.0326 0.3273232,0.0328 0.4535213,4.8e-4 z"
       id="path2131"
       inkscape:connector-curvature="0" />
  </g>
</svg>
