<?xml version="1.0" encoding="UTF-8" standalone="no"?>
<!-- Created with Inkscape (http://www.inkscape.org/) -->

<svg
   xmlns:dc="http://purl.org/dc/elements/1.1/"
   xmlns:cc="http://creativecommons.org/ns#"
   xmlns:rdf="http://www.w3.org/1999/02/22-rdf-syntax-ns#"
   xmlns:svg="http://www.w3.org/2000/svg"
   xmlns="http://www.w3.org/2000/svg"
   xmlns:sodipodi="http://sodipodi.sourceforge.net/DTD/sodipodi-0.dtd"
   xmlns:inkscape="http://www.inkscape.org/namespaces/inkscape"
   width="96"
   height="96"
   viewBox="0 0 25.399999 25.400001"
   version="1.1"
   id="svg877"
   inkscape:version="0.92.3 (2405546, 2018-03-11)"
   sodipodi:docname="guest-hover.svg">
  <defs
     id="defs871" />
  <sodipodi:namedview
     id="base"
     pagecolor="#ffffff"
     bordercolor="#666666"
     borderopacity="1.0"
     inkscape:pageopacity="0.0"
     inkscape:pageshadow="2"
     inkscape:zoom="1.1269515"
     inkscape:cx="26.60519"
     inkscape:cy="14.007541"
     inkscape:document-units="px"
     inkscape:current-layer="layer1"
     showgrid="false"
     units="px"
     inkscape:window-width="1920"
     inkscape:window-height="1025"
     inkscape:window-x="1920"
     inkscape:window-y="0"
     inkscape:window-maximized="1"
     inkscape:snap-nodes="false"
     fit-margin-top="0"
     fit-margin-left="0"
     fit-margin-right="0"
     fit-margin-bottom="0" />
  <metadata
     id="metadata874">
    <rdf:RDF>
      <cc:Work
         rdf:about="">
        <dc:format>image/svg+xml</dc:format>
        <dc:type
           rdf:resource="http://purl.org/dc/dcmitype/StillImage" />
        <dc:title></dc:title>
      </cc:Work>
    </rdf:RDF>
  </metadata>
  <g
     inkscape:label="Capa 1"
     inkscape:groupmode="layer"
     id="layer1"
     transform="translate(-5.0890299,-266.4073)">
    <path
       style="fill:#000000;stroke-width:0.07187002"
       d="m 16.817243,261.71258 c -1.559355,-0.17418 -2.681816,-0.88425 -3.075248,-1.94512 -0.222474,-0.59984 -0.08976,-2.76379 0.229112,-3.73564 0.316611,-0.96494 1.578238,-1.36623 3.15204,-1.00255 l 0.688785,0.15924 0.688781,-0.15924 c 1.127003,-0.26041 2.220808,-0.10673 2.749109,0.38592 0.423329,0.39489 0.645571,1.32487 0.707643,2.96116 0.03505,0.92365 0.02485,1.04139 -0.124396,1.43555 -0.203135,0.53658 -0.711798,1.08926 -1.282298,1.39334 -0.824498,0.43946 -2.411648,0.65518 -3.733524,0.50738 z m -1.066458,-2.7924 c 0.09936,-0.0384 0.289554,-0.25358 0.436221,-0.49504 0.180564,-0.29713 0.342306,-0.46767 0.529229,-0.55775 0.341675,-0.16436 1.433356,-0.22413 1.88366,-0.10289 0.344911,0.0931 0.739902,0.44446 0.951912,0.84699 0.155036,0.29456 0.431963,0.4094 0.733317,0.30438 0.362183,-0.12636 0.742728,-0.42776 0.864931,-0.68527 0.104816,-0.22071 0.104816,-0.28902 -1.8e-5,-0.80241 -0.133455,-0.65351 -0.260161,-0.88511 -0.48293,-0.88276 -0.08803,8.1e-4 -0.387225,0.0623 -0.664882,0.13576 -0.421481,0.11227 -0.777457,0.1349 -2.1561,0.13703 -1.43858,0.003 -1.733192,-0.0171 -2.287283,-0.14899 -0.454355,-0.10843 -0.669893,-0.13106 -0.754635,-0.079 -0.141387,0.0871 -0.344637,0.658 -0.408417,1.14714 -0.05972,0.45803 0.14055,0.76874 0.675828,1.04836 0.432574,0.22583 0.435903,0.22669 0.679166,0.13405 z m -2.741704,-6.19104 c -0.584383,-0.076 -0.870265,-0.16948 -1.471527,-0.48138 -0.892978,-0.46341 -1.169965,-1.03614 -1.234386,-2.55247 -0.04282,-1.00806 0.03091,-1.2534 0.465499,-1.54903 0.245911,-0.16735 0.277305,-0.17034 1.401466,-0.13235 0.632454,0.0213 1.861434,0.11143 2.73106,0.20022 2.16022,0.22029 3.6964,0.2126 6.216757,-0.0299 2.443485,-0.23693 3.389932,-0.24974 3.715372,-0.0517 0.439594,0.2681 0.472349,0.3855 0.437214,1.56573 -0.04912,1.64999 -0.314016,2.15579 -1.385589,2.64549 -0.784962,0.35861 -1.164581,0.42392 -2.479516,0.4252 -1.058391,0.001 -1.220881,-0.0171 -1.511703,-0.15069 -0.54011,-0.25188 -0.894056,-0.75098 -1.395399,-1.96723 -0.224822,-0.54538 -0.398218,-0.7187 -0.719158,-0.7187 -0.308867,0 -0.407073,0.12338 -0.776916,0.97535 -0.528381,1.21724 -0.836028,1.56965 -1.557115,1.78362 -0.42411,0.12594 -1.617933,0.14472 -2.436059,0.0384 z m 1.528798,-5.59995 c -5.425755,-0.25187 -8.625536,-1.0942 -9.125262,-2.40275 -0.107952,-0.28262 -0.108643,-0.33086 -0.0077,-0.52621 0.253698,-0.4906 1.833705,-1.1783 3.828797,-1.66652 l 0.657081,-0.16094 0.04789,-0.47899 c 0.08678,-0.86803 0.395956,-3.27625 0.476682,-3.71293 0.152538,-0.82513 0.367832,-1.01724 1.444598,-1.28913 2.981602,-0.75281 9.572524,-0.69799 12.27736,0.10203 0.549832,0.16265 0.881992,0.46285 0.997928,0.90201 0.0644,0.24376 0.385984,2.64251 0.545145,4.06599 l 0.04508,0.40342 0.768677,0.20108 c 1.713175,0.44846 3.072503,0.99772 3.517706,1.42138 0.608026,0.57859 0.0082,1.41054 -1.43107,1.98499 -1.284637,0.51271 -3.316033,0.8679 -6.20512,1.08498 -1.353376,0.1016 -6.227208,0.146 -7.837796,0.0713 z"
       id="path825"
       inkscape:connector-curvature="0"
       sodipodi:nodetypes="cccccccscscccccsscccccccscccsccccsccccccsscccccccccssccccccscc" />
    <text
       xml:space="preserve"
       style="font-style:normal;font-variant:normal;font-weight:bold;font-stretch:normal;font-size:3.444067px;line-height:1.25;font-family:sans-serif;-inkscape-font-specification:'sans-serif Bold';letter-spacing:0px;word-spacing:0px;fill:#ffffff;fill-opacity:1;stroke:none;stroke-width:0.08610168"
       x="8.3986177"
       y="307.17899"
       id="text854"><tspan
         sodipodi:role="line"
         id="tspan852"
         x="8.3986177"
         y="307.17899"
         style="font-style:normal;font-variant:normal;font-weight:bold;font-stretch:normal;font-family:sans-serif;-inkscape-font-specification:'sans-serif Bold';fill:#ffffff;stroke-width:0.08610168">59999</tspan></text>
    <text
       id="text868"
       y="289.68964"
       x="0.54425055"
       style="font-style:normal;font-variant:normal;font-weight:bold;font-stretch:normal;font-size:0.86101675px;line-height:1.25;font-family:sans-serif;-inkscape-font-specification:'sans-serif Bold';letter-spacing:0px;word-spacing:0px;fill:#ffffff;fill-opacity:1;stroke:none;stroke-width:0.02152542"
       xml:space="preserve"><tspan
         style="font-style:normal;font-variant:normal;font-weight:bold;font-stretch:normal;font-family:sans-serif;-inkscape-font-specification:'sans-serif Bold';fill:#ffffff;stroke-width:0.02152542"
         y="290.47305"
         x="0.54425055"
         id="tspan866"
         sodipodi:role="line" /></text>
    <g
       id="g2108"
       transform="translate(-11.867831,-37.708621)"
       style="stroke:none">
      <g
         style="fill:#7f8c8d;fill-opacity:1;stroke:none"
         transform="matrix(2.5965969,0,0,2.5965969,48.852665,-441.22967)"
         id="g861">
        <path
           style="fill:#7f8c8d;fill-opacity:1;stroke:none;stroke-width:0.22367413;stroke-miterlimit:4;stroke-dasharray:none;stroke-opacity:0.25098039"
           d="m -6.1371327,292.36963 c -0.3673997,0.22048 -0.7958755,0.34992 -1.255546,0.34993 -0.4595306,-10e-6 -0.8877827,-0.12914 -1.2551089,-0.34949 -0.946503,0.81469 -1.7702044,2.4404 -1.8077404,4.34722 h 6.1256997 c -0.037539,-1.90703 -0.860727,-3.53308 -1.8073044,-4.34766 z"
           id="path885-7"
           inkscape:connector-curvature="0" />
        <path
           style="fill:#7f8c8d;fill-opacity:1;stroke:none;stroke-width:0.22367413;stroke-miterlimit:4;stroke-dasharray:none;stroke-opacity:0.25098039"
           d="m -7.392545,287.15893 c -1.3515146,6e-5 -2.4469876,1.09588 -2.4466004,2.44744 6.51e-5,1.35117 1.0954077,2.44652 2.4466004,2.44653 1.3511905,-1e-5 2.4465328,-1.09536 2.4465959,-2.44653 3.916e-4,-1.35156 -1.0950835,-2.44738 -2.4465959,-2.44744 z"
           id="path883-5"
           inkscape:connector-curvature="0"
           sodipodi:nodetypes="ccccc" />
      </g>
      <path
         sodipodi:nodetypes="ccccccccccccccccsccccccccccscccccccccscccc"
         style="fill:#333333;fill-opacity:1;stroke-width:0.03963492;stroke:none"
         d="m 25.413114,314.97966 c -1.579772,-0.17257 -3.1323,-1.34502 -3.978415,-3.00393 -0.36621,-0.71801 -0.552506,-1.32593 -0.618459,-2.01816 -0.07173,-0.75263 0.06655,-1.19406 0.511916,-1.63439 0.62307,-0.61605 1.699878,-0.91084 3.324013,-0.90999 1.45271,7.4e-4 2.759824,0.22693 3.800957,0.65798 0.463245,0.19178 0.800402,0.26081 1.260378,0.2582 0.452114,-0.003 0.69539,-0.0576 1.262778,-0.28653 0.459677,-0.18558 1.153991,-0.3601 1.828746,-0.46028 0.373975,-0.0557 0.72549,-0.0706 1.64485,-0.07 1.038287,4.7e-4 1.220383,0.009 1.625994,0.0877 1.470742,0.28066 2.27394,0.85701 2.416662,1.73392 0.103349,0.63493 -0.153604,1.83779 -0.56949,2.66583 -0.418367,0.83301 -1.13,1.67138 -1.819956,2.14403 -0.946263,0.64826 -2.015552,0.94203 -3.044381,0.83645 -0.720014,-0.0738 -1.20959,-0.28294 -1.799443,-0.76881 -0.731612,-0.60247 -1.088349,-0.77462 -1.605212,-0.77462 -0.516866,0 -0.873605,0.17224 -1.605216,0.77462 -0.590762,0.48652 -1.079279,0.69489 -1.802982,0.7692 -0.222833,0.0228 -0.434477,0.0394 -0.470318,0.0362 -0.03584,-0.003 -0.198934,-0.0195 -0.362422,-0.0377 z m 1.483616,-2.57219 c 0.434869,-0.1114 0.79649,-0.3015 1.056314,-0.55566 0.302537,-0.29596 0.40193,-0.50075 0.423315,-0.87185 0.02442,-0.4237 -0.08026,-0.6859 -0.401872,-1.00653 -0.878094,-0.87554 -2.712302,-0.88775 -3.595176,-0.0228 -0.342514,0.33512 -0.412653,0.49678 -0.412653,0.95111 0,0.32103 0.01397,0.40278 0.09488,0.5548 0.225113,0.42291 0.751701,0.79122 1.358577,0.95024 0.405003,0.10613 1.065727,0.10675 1.476615,0.002 z m 6.975745,0 c 0.434869,-0.1114 0.796492,-0.3015 1.056315,-0.55566 0.302536,-0.29596 0.401929,-0.50075 0.423317,-0.87185 0.02442,-0.4237 -0.08029,-0.6859 -0.401873,-1.00653 -0.878092,-0.87554 -2.712304,-0.88775 -3.595175,-0.0228 -0.342516,0.33512 -0.412655,0.49678 -0.412655,0.95111 0,0.32103 0.01396,0.40278 0.09488,0.5548 0.225113,0.42291 0.751701,0.79122 1.358579,0.95024 0.405,0.10613 1.065728,0.10675 1.476615,0.002 z"
         id="path887-3"
         inkscape:connector-curvature="0" />
    </g>
  </g>
</svg>
