<?xml version="1.0" encoding="UTF-8" standalone="no"?>
<!-- Created with Inkscape (http://www.inkscape.org/) -->

<svg
   xmlns:dc="http://purl.org/dc/elements/1.1/"
   xmlns:cc="http://creativecommons.org/ns#"
   xmlns:rdf="http://www.w3.org/1999/02/22-rdf-syntax-ns#"
   xmlns:svg="http://www.w3.org/2000/svg"
   xmlns="http://www.w3.org/2000/svg"
   xmlns:sodipodi="http://sodipodi.sourceforge.net/DTD/sodipodi-0.dtd"
   xmlns:inkscape="http://www.inkscape.org/namespaces/inkscape"
   width="32"
   height="32"
   viewBox="0 0 8.4666665 8.4666669"
   version="1.1"
   id="svg877"
   inkscape:version="0.92.3 (2405546, 2018-03-11)"
   sodipodi:docname="shutdown.svg">
  <defs
     id="defs871" />
  <sodipodi:namedview
     id="base"
     pagecolor="#ffffff"
     bordercolor="#666666"
     borderopacity="1.0"
     inkscape:pageopacity="0.0"
     inkscape:pageshadow="2"
     inkscape:zoom="11.2"
     inkscape:cx="-9.476888"
     inkscape:cy="16.168411"
     inkscape:document-units="px"
     inkscape:current-layer="layer1"
     showgrid="false"
     units="px"
     inkscape:window-width="1920"
     inkscape:window-height="952"
     inkscape:window-x="0"
     inkscape:window-y="36"
     inkscape:window-maximized="1" />
  <metadata
     id="metadata874">
    <rdf:RDF>
      <cc:Work
         rdf:about="">
        <dc:format>image/svg+xml</dc:format>
        <dc:type
           rdf:resource="http://purl.org/dc/dcmitype/StillImage" />
        <dc:title />
      </cc:Work>
    </rdf:RDF>
  </metadata>
  <g
     inkscape:label="Capa 1"
     inkscape:groupmode="layer"
     id="layer1"
     transform="translate(0,-288.53332)">
    <path
       style="opacity:1;fill:none;fill-opacity:1;stroke:#31363b;stroke-width:0.26458333;stroke-miterlimit:4;stroke-dasharray:none;stroke-opacity:0.25098041;stroke-linejoin:round;paint-order:normal;stroke-linecap:round"
       d="m 3.6914246,288.74388 v 4.24898 h 1.0838175 v -4.24898 z m 2.0532852,1.55547 v 0.92537 a 2.6235218,2.6235218 0 0 1 1.1121796,2.14245 2.6235218,2.6235218 0 0 1 -2.6235487,2.62354 2.6235218,2.6235218 0 0 1 -2.6235633,-2.62354 2.6235218,2.6235218 0 0 1 1.1121794,-2.13993 v -0.92536 a 3.4219851,3.4219851 0 0 0 -1.91055954,3.06529 3.4219851,3.4219851 0 0 0 3.42194344,3.42225 3.4219851,3.4219851 0 0 0 3.4219287,-3.42225 3.4219851,3.4219851 0 0 0 -1.9105596,-3.06782 z"
       id="path860"
       inkscape:connector-curvature="0" />
    <path
       style="opacity:1;fill:#fcfcfc;fill-opacity:1;stroke:none;stroke-width:0.64525563;stroke-miterlimit:4;stroke-dasharray:none;stroke-opacity:1"
       d="m 3.6914246,288.74388 v 4.24898 h 1.0838175 v -4.24898 z m 2.053285,1.55547 v 0.92537 a 2.6235218,2.6235218 0 0 1 1.1121797,2.14245 2.6235218,2.6235218 0 0 1 -2.6235488,2.62354 2.6235218,2.6235218 0 0 1 -2.6235632,-2.62354 2.6235218,2.6235218 0 0 1 1.1121794,-2.13993 v -0.92536 a 3.4219851,3.4219851 0 0 0 -1.91055951,3.06529 3.4219851,3.4219851 0 0 0 3.42194331,3.42225 3.4219851,3.4219851 0 0 0 3.421929,-3.42225 3.4219851,3.4219851 0 0 0 -1.9105599,-3.06782 z"
       id="path860-3"
       inkscape:connector-curvature="0" />
  </g>
</svg>
