<?xml version="1.0" encoding="UTF-8" standalone="no"?>
<!-- Created with Inkscape (http://www.inkscape.org/) -->

<svg
   xmlns:dc="http://purl.org/dc/elements/1.1/"
   xmlns:cc="http://creativecommons.org/ns#"
   xmlns:rdf="http://www.w3.org/1999/02/22-rdf-syntax-ns#"
   xmlns:svg="http://www.w3.org/2000/svg"
   xmlns="http://www.w3.org/2000/svg"
   xmlns:sodipodi="http://sodipodi.sourceforge.net/DTD/sodipodi-0.dtd"
   xmlns:inkscape="http://www.inkscape.org/namespaces/inkscape"
   width="32"
   height="32"
   viewBox="0 0 8.4666665 8.4666671"
   version="1.1"
   id="svg877"
   inkscape:version="0.92.3 (2405546, 2018-03-11)"
   sodipodi:docname="go-back.svg">
  <defs
     id="defs871" />
  <sodipodi:namedview
     id="base"
     pagecolor="#ffffff"
     bordercolor="#666666"
     borderopacity="1.0"
     inkscape:pageopacity="0.0"
     inkscape:pageshadow="2"
     inkscape:zoom="6.375"
     inkscape:cx="19.578668"
     inkscape:cy="24.989851"
     inkscape:document-units="px"
     inkscape:current-layer="layer1"
     showgrid="false"
     units="px"
     inkscape:window-width="1920"
     inkscape:window-height="1025"
     inkscape:window-x="1920"
     inkscape:window-y="0"
     inkscape:window-maximized="1"
     inkscape:snap-nodes="false" />
  <metadata
     id="metadata874">
    <rdf:RDF>
      <cc:Work
         rdf:about="">
        <dc:format>image/svg+xml</dc:format>
        <dc:type
           rdf:resource="http://purl.org/dc/dcmitype/StillImage" />
        <dc:title />
      </cc:Work>
    </rdf:RDF>
  </metadata>
  <g
     inkscape:label="Capa 1"
     inkscape:groupmode="layer"
     id="layer1"
     transform="translate(0,-288.53332)">
    <text
       id="text868"
       y="289.68964"
       x="0.54425055"
       style="font-style:normal;font-variant:normal;font-weight:bold;font-stretch:normal;font-size:0.86101675px;line-height:1.25;font-family:sans-serif;-inkscape-font-specification:'sans-serif Bold';letter-spacing:0px;word-spacing:0px;fill:#ffffff;fill-opacity:1;stroke:none;stroke-width:0.02152542"
       xml:space="preserve"><tspan
         style="font-style:normal;font-variant:normal;font-weight:bold;font-stretch:normal;font-family:sans-serif;-inkscape-font-specification:'sans-serif Bold';fill:#ffffff;stroke-width:0.02152542"
         y="290.47305"
         x="0.54425055"
         id="tspan866"
         sodipodi:role="line" /></text>
    <g
       id="g898">
      <path
         sodipodi:nodetypes="ccccc"
         inkscape:connector-curvature="0"
         id="path9"
         d="m 12.0567,291.91661 c -0.69348,3e-5 -1.255582,0.56231 -1.255383,1.25582 3.3e-5,0.6933 0.562068,1.25533 1.255383,1.25534 0.693315,-1e-5 1.25535,-0.56204 1.255383,-1.25534 2e-4,-0.69351 -0.561904,-1.25579 -1.255383,-1.25582 z"
         style="fill:#fcfcfc;fill-opacity:1;stroke:none;stroke-width:0.11814322;stroke-miterlimit:4;stroke-dasharray:none;stroke-opacity:0.25098039" />
      <path
         id="path9-3"
         d="m 12.056123,295.01842 c -1.07351,0.003 -2.4226057,1.74594 -2.4660322,3.952 h 4.9332172 c -0.04345,-2.20707 -1.393177,-3.95063 -2.467185,-3.952 z m 0.25439,0.97546 c 0.138175,0 0.268474,0.0128 0.390528,0.0381 0.124356,0.0253 0.239599,0.0607 0.345532,0.10672 l -0.117677,0.26938 c -0.08751,-0.0368 -0.186538,-0.0686 -0.297077,-0.0963 -0.108237,-0.0299 -0.221163,-0.045 -0.338611,-0.045 -0.294772,0 -0.52468,0.0898 -0.690489,0.26938 -0.163506,0.17733 -0.245738,0.41882 -0.245738,0.7251 0,0.19575 0.03127,0.37006 0.09345,0.52205 0.06448,0.1497 0.164667,0.26668 0.300539,0.35188 0.135871,0.0829 0.314237,0.1246 0.535316,0.1246 0.108236,0 0.200315,-0.006 0.276311,-0.0173 0.076,-0.0115 0.145487,-0.0255 0.207666,-0.0415 v -0.73202 h -0.542816 v -0.27631 h 0.853737 v 1.20908 c -0.133568,0.0437 -0.2685,0.0756 -0.404371,0.0963 -0.135872,0.0207 -0.290493,0.0312 -0.46321,0.0312 -0.255623,0 -0.470474,-0.0504 -0.645495,-0.15171 -0.175021,-0.10363 -0.308794,-0.25014 -0.400911,-0.43898 -0.08981,-0.19115 -0.134982,-0.41642 -0.134982,-0.67665 0,-0.25562 0.0498,-0.47799 0.148827,-0.66684 0.101328,-0.19113 0.247264,-0.3388 0.438406,-0.44244 0.191141,-0.10593 0.421625,-0.15863 0.691065,-0.15863 z"
         style="fill:#fcfcfc;fill-opacity:1;stroke:none;stroke-width:0.11854009;stroke-miterlimit:4;stroke-dasharray:none;stroke-opacity:0.25098039"
         inkscape:connector-curvature="0" />
    </g>
    <g
       aria-label="&lt;"
       style="font-style:normal;font-weight:normal;font-size:10.58333397px;line-height:1.25;font-family:sans-serif;letter-spacing:0px;word-spacing:0px;fill:#333333;fill-opacity:1;stroke:none;stroke-width:0.26458335"
       id="text837"
       transform="matrix(0.846661,0,0,1.1840837,-11.923759,-53.681768)">
      <path
         d="m 21.575683,295.19128 -4.984751,-2.19075 v -0.52917 l 4.984751,-2.48708 v 0.8255 l -3.989917,1.88383 3.989917,1.67217 z"
         style="fill:#333333;stroke-width:0.26458335"
         id="path839"
         inkscape:connector-curvature="0" />
    </g>
    <rect
       y="288.53333"
       x="-11.869935"
       height="8.4666672"
       width="8.4666672"
       id="rect2709"
       style="fill:#7f8c8d;fill-opacity:1;stroke:none;stroke-width:0.13863549;stroke-miterlimit:4;stroke-dasharray:none;stroke-opacity:1" />
    <g
       transform="matrix(0.846661,0,0,1.1840837,-23.793694,-53.681768)"
       id="g2713"
       style="font-style:normal;font-weight:normal;font-size:10.58333397px;line-height:1.25;font-family:sans-serif;letter-spacing:0px;word-spacing:0px;fill:#ffffff;fill-opacity:1;stroke:none;stroke-width:0.26458335"
       aria-label="&lt;">
      <path
         inkscape:connector-curvature="0"
         id="path2711"
         style="fill:#ffffff;stroke-width:0.26458335"
         d="m 21.575683,295.19128 -4.984751,-2.19075 v -0.52917 l 4.984751,-2.48708 v 0.8255 l -3.989917,1.88383 3.989917,1.67217 z" />
    </g>
  </g>
</svg>
